<?xml version="1.0" encoding="utf-8"?>
<!-- Generator: Adobe Illustrator 19.2.1, SVG Export Plug-In . SVG Version: 6.00 Build 0)  -->
<svg version="1.1" xmlns="http://www.w3.org/2000/svg" xmlns:xlink="http://www.w3.org/1999/xlink" x="0px" y="0px"
	 viewBox="0 0 237.9 237.9" style="enable-background:new 0 0 237.9 237.9;" xml:space="preserve">
<style type="text/css">
	.st0{display:none;}
	.st1{display:inline;fill:#D12C41;}
	.st2{display:inline;fill:#989885;}
	.st3{fill:#B91614;}
	.st4{fill:#FFFFFF;}
	.st5{fill:none;}
</style>
<g id="Layer_2" class="st0">
	<rect x="-1451.5" y="-273.8" class="st1" width="46.4" height="46.4"/>
	<rect x="-1451.5" y="-206.6" class="st2" width="46.4" height="46.4"/>
</g>
<g id="music">
	<path class="st3" d="M-413,182.8c-3.6,0.3-7.4,0.2-11.4-0.2c-8.9-1-16.3-3.7-22.3-7.9c-8-5.7-9.1-11.6-8.7-15.5
		c0.5-3.9,2.9-9.4,12-13.1c3.7-1.5,7.7-2.5,12-2.8c3.6-0.3,7.4-0.2,11.4,0.2c7.3,0.8,13.7,2.7,18.8,5.6l3,1.7l0.4-3.4l8.9-77.3
		l0.7-6.1l0.1-0.6c0.5-4.8,2.1-7.3,4.8-7.6l0.5-0.1l0.3,0.1c2.1,0.2,3.1,2.1,4.9,6.7l0.3,0.6c0.4,1,0.8,2.1,1.2,2.9
		c3.7,7.6,10.9,18.6,24.4,27.9c10,6.9,13.4,20.5,9.5,38.1c-2.6,11.7-7.7,9.7-9.1,8.1c-0.7-0.8-2.2-1.9-3.1-11.3
		c-0.6-6.2-0.3-16.5-6.6-21c-2.7-1.9-5.8-3.1-9.1-4.5c-2.5-1-5.2-2.1-7.8-3.6l-3-1.7l-2.3,19.7l-5.6,49.1c-0.5,3.9-2.9,9.4-12,13.1
		C-404.6,181.5-408.7,182.4-413,182.8L-413,182.8z"/>
	<path class="st3" d="M-398.1,220c-55.7,0-101.1-45.3-101.1-101.1s45.3-101.1,101.1-101.1S-297,63.2-297,119S-342.4,220-398.1,220z
		 M-398.1,24.2c-52.3,0-94.8,42.5-94.8,94.8s42.5,94.8,94.8,94.8s94.8-42.5,94.8-94.8S-345.8,24.2-398.1,24.2z"/>
	<path class="st3" d="M119,220C63.2,220,17.9,174.7,17.9,119S63.2,17.9,119,17.9S220,63.2,220,119S174.7,220,119,220z"/>
	<g>
		<path class="st4" d="M147.3,122.7c1.4-1.3,2.7-2.8,3.9-4.4c0.4-0.5,0.7-1,1-1.5c0.9-1.6,1.9-3.6-0.2-4.8c-2-1.2-3.3,0.3-4.3,2
			c-2,3.4-4.6,6.3-8,8.3c-2.1,1.2-4.3,1.9-6.7,0.8c-2.5-1.2-5-2.5-8.2-4.1c20.3-10,40-19.7,60.1-29.6c0,20.1,0,39.5,0,59.4
			c-5.1-2.6-10.6-3.8-13-9.5c-0.7-1.6-2-2-3.5-1.4c-1.7,0.7-1.6,2.1-0.9,3.6c1.3,2.8,2.9,5.2,5.5,6.9c3.8,2.3,7.7,4.2,11.8,5.9
			c4.2,1.8,5.3,1.1,5.3-3.7c0-21,0-42.1,0-63.1c0-4.8-1.3-5.6-5.6-3.5c-17.4,8.6-34.9,17.2-52.3,25.7c-4.3,2.1-8.6,5.6-13,5.8
			c-4.6,0.2-8.9-3.7-13.3-5.8c-17.4-8.6-34.9-17.2-52.3-25.7c-4-2-5.6-1.1-5.6,3.3c0,21.3,0,42.6,0,63.9c0,4,1.4,4.8,5.1,3.1
			c5.3-2.5,10.5-5,15.7-7.7c3-1.5,5.8-3.4,7.9-6.2c1.1-1.5,2.4-3.2,0.3-4.7c-1.8-1.3-3,0-4.2,1.4c-5.2,6-12.7,7.8-19.6,11.6
			c0-20,0-39.2,0-59.2C73.3,99.3,93,109,113.3,119c-6.1,3-11.2,6.1-16.8,8.1c-6.5,2.4-13.3,3.7-20.2,1.2c-3.2-1.2-5.7-3.1-6.6-6.6
			c-0.7-2.8,0.9-5.2,3.4-5.6c2.6-0.4,4.7,1.2,5,4.1c0.2,1.5,0,3.1,0.1,4.7c0.1,1.3,0.8,2.2,2.1,2.4c1.1,0.2,2-0.3,2.5-1.4
			c1.5-2.9,0.1-10-2.5-12.4c-3.1-2.9-7.9-3.4-11.6-1.1c-5,3-5.6,10.8-1.2,15.8c5.7,6.3,13.1,6.7,20.8,5.9c7-0.7,13.2-3.6,19.3-6.8
			c3.6-1.9,7.1-4.6,10.8-5c4-0.4,7.5,3,11.2,4.8c1.7,0.8,3.6,1.3,5.5,1.4c1.4,0,2.6-0.2,3.9-0.6
			C142.3,126.7,144.9,124.9,147.3,122.7z"/>
		<path class="st4" d="M145,126.1 M146.4,125.3c0.2,1.2,1.3,2.2,2.6,2.3c1.2,0.2,2.5-0.3,3.4-1.1s1.7-1.7,2.5-2.7
			c1.3-1.7,2.6-3.4,3.9-5.1c0.6-0.7,1.1-1.5,1.9-1.9c0.8-0.4,1.9-0.5,2.6,0.1c0.6,0.5,0.7,1.3,0.7,2c-0.1,0.7-0.4,1.4-0.7,2.1
			c-1.3,2.9-2.6,5.8-3.9,8.7c-0.3,0.6-0.6,1.3-0.7,2c-0.2,1.4,0.8,2.7,2.3,2.5c0.6-0.1,1.2-0.4,1.7-0.7c1.4-0.8,2.8-1.6,4.2-2.6
			c2-1.6,3.8-3.4,4.8-5.8c0.1-0.3,0.3-0.7,0.2-1c0-0.4-0.2-0.7-0.5-0.9c-0.4-0.2-0.8,0-1.1,0.2c-0.3,0.3-0.5,0.7-0.6,1
			c-0.3,0.9-0.5,1.8-0.9,2.6c-0.4,0.9-0.9,1.7-1.8,2.1c-1.9,0.9-3-0.8-3-2.5c0-2.1,0.5-4.1,1.8-5.8c1.2-1.6,3.2-2.8,5.2-2.9
			c2-0.1,4.2,0.9,5.2,2.7c0.8,1.4,0.9,3.1,0.6,4.6s-1.1,3-2,4.3c-2.8,4-6.7,7.1-11.3,8.8c-2,0.8-4.3,1.2-6.3,0.3
			c-1.2-0.6-2.1-1.7-2.7-2.8s-0.9-2.5-1.2-3.8c-1.3,1-3.1,1.6-4.8,1.4c-2.7-0.2-6.1-2.6-5.5-5.4"/>
	</g>
</g>
<g id="globe">
	<path class="st3" d="M-655,218.6c-55,0-99.7-44.7-99.7-99.7S-710,19.3-655,19.3s99.7,44.7,99.7,99.7S-600.1,218.6-655,218.6z
		 M-655,25.5c-51.5,0-93.5,41.9-93.5,93.5s41.9,93.5,93.5,93.5c51.5,0,93.5-41.9,93.5-93.5S-603.5,25.5-655,25.5z"/>
	<path class="st3" d="M-648.7,170.6c0,3.3,0,6.6,0,10c8.7,0.9,17,3,24.2,9c-19.4,0-38.4,0-57.8,0c0.5-0.5,0.9-0.9,1.4-1.2
		c5.4-4.1,11.7-6.1,18.3-7.2c0.5-0.1,1.1-0.2,1.6-0.3c3-0.4,3-0.4,3-3.5c0-1.9,0-3.8,0-5.8c0-1-0.3-1.3-1.3-1.4
		c-19.1-1.9-34.7-10.4-46.3-25.7c-10-13.2-14.4-28.2-13-44.7c1.6-19,10.2-34.4,25-46.4c0.9-0.7,1.7-1.4,2.5-2.1
		c1.9-1.5,4.3-1.2,5.7,0.6c1.4,1.7,1.1,4.1-0.6,5.7c-3.5,3.2-7.3,6.1-10.4,9.6c-11.2,12.7-15.9,27.6-14,44.4
		c2.9,25.5,21.7,45.6,47,49.9c17.6,3,33.4-1.4,47.1-12.9c1.3-1.1,2.7-2.3,4-3.4c1.8-1.4,4.2-1.2,5.6,0.5c1.4,1.7,1.3,4.1-0.3,5.6
		c-9.4,8.6-20,15-32.6,17.5C-642.5,169.6-645.5,170-648.7,170.6z"/>
	<path class="st3" d="M-666.1,119.3c9.7-8.2,19.2-16.1,28.7-24.1c0.6,0.8,1.3,1.5,1.8,2.3c2.5,4.3,5,8.6,7.5,12.9
		c0.6,1,0.3,1.4-0.6,2c-4.8,3.3-9.7,6.6-14.2,10.3c-3.2,2.6-5.9,5.9-8.8,8.9C-656.9,128.3-661.7,124.2-666.1,119.3z"/>
	<path class="st3" d="M-679.4,98.7c9.3-5.2,17.3-11.8,24-20.1c5.4,3.5,10.2,7.7,14.6,12.5c-9.6,8-19.1,16-28.7,24.1
		C-673.6,110.1-676.8,104.7-679.4,98.7z"/>
	<path class="st3" d="M-636.4,87.4c-5.2-4.5-10.3-8.9-15.2-13.2c3.1-6,6.3-12.2,9.7-18.7c9.8,2.2,18.5,7.2,25.8,14.9
		C-623,76.2-629.8,81.9-636.4,87.4z"/>
	<path class="st3" d="M-690.8,140c6.9-5.8,13.7-11.5,20.3-17c5.1,4.5,10.2,8.9,15.2,13.2c-3.1,5.9-6.3,12.1-9.7,18.6
		C-674.8,152.7-683.4,147.7-690.8,140z"/>
	<path class="st3" d="M-674,119c-6.5,5.5-13.3,11.1-20.2,16.9c-6.3-8.4-9.7-17.8-10.2-27.9c6.9-2.2,13.6-4.2,20-6.3
		C-681.1,107.2-677.6,113-674,119z"/>
	<path class="st3" d="M-632.9,91.5c6.6-5.5,13.3-11.2,20.2-16.9c6.3,8.5,9.7,17.9,10.1,28c-6.9,2.2-13.5,4.2-20,6.3
		C-625.8,103.3-629.3,97.5-632.9,91.5z"/>
	<path class="st3" d="M-681.4,93.6c-3-8.7-4.4-17.5-4.2-26.7c9.1,1.4,17.5,4.3,25.6,8.8C-666,83-673.1,88.9-681.4,93.6z"/>
	<path class="st3" d="M-621.5,143.5c-9-1.4-17.4-4.3-25.4-8.8c6.1-7.3,13-13.2,21.2-17.7C-623.1,121.8-620.7,137.1-621.5,143.5z"/>
	<path class="st3" d="M-656.7,71.4c-7.6-4.3-15.5-7.3-24.3-9.2c10.4-6.4,21.2-9,33.2-7.8C-650,60.5-653,66.1-656.7,71.4z"/>
	<path class="st3" d="M-686.3,96c-3.3,2-15.4,6-18.2,5.7c0.9-11.8,5.3-22,13.4-31.1C-690.6,79.5-689.2,87.9-686.3,96z"/>
	<path class="st3" d="M-626.4,148.2c-9.9,6.4-20.7,8.9-32.7,7.7c2.3-6.1,5.2-11.7,8.9-16.9C-642.7,143.3-634.8,146.3-626.4,148.2z"
		/>
	<path class="st3" d="M-602.6,108.5c-0.9,11.9-5.2,22.1-13.2,30.9c-0.5-8.6-2-16.9-4.9-25C-614.9,111.6-609,109.7-602.6,108.5z"/>
</g>
<g id="clock">
	<path class="st3" d="M-913,218c-54.6,0-99-44.4-99-99s44.4-99,99-99s99,44.4,99,99S-858.4,218-913,218z M-913,26.1
		c-51.2,0-92.8,41.6-92.8,92.8s41.7,92.8,92.8,92.8s92.8-41.6,92.8-92.8S-861.8,26.1-913,26.1z"/>
	<path class="st3" d="M-876.7,66.9c3.9-3.9,7.8-7.8,11.8-11.8c0,11.3,0,22.4,0,33.6c-11.1,0-22.3,0-33.4,0c3.5-3.4,7-6.9,10.5-10.4
		c-14.2-9.6-35.8-12-53.7-0.5c-17.5,11.2-25.7,32.7-21.2,52.3c4.9,21.4,23.2,37.4,46.7,38.1c0,5.1,0,10.3,0,15.4
		c-19.2,0.5-43.6-10.4-56.3-34.2c-13.8-25.9-7.9-57.1,11.7-76.3c11.3-11.1,24.9-17.4,40.8-18.5C-904,53.4-889.8,57.8-876.7,66.9z"/>
	<path class="st3" d="M-911.6,117c10.5,0,20.7,0,31,0c0,2.5,0,4.9,0,7.4c-13,0-25.9,0-38.9,0c0-13.5,0-27,0-40.7c2.6,0,5.1,0,7.9,0
		C-911.6,94.7-911.6,105.8-911.6,117z"/>
	<path class="st3" d="M-855.9,92.7c2.7,5.6,3.8,11.5,5,17.6c-5.2,0.4-10.3,0.8-15.3,1.2c-1.3-4.2-2.5-8.3-3.7-12.5
		C-865.4,97-860.7,94.8-855.9,92.7z"/>
	<path class="st3" d="M-869.1,137.1c1.1-4.2,2.1-8.2,3.2-12.5c4.9,0.3,10,0.6,15.2,0.9c-0.5,6-2.2,11.6-4.2,17.4
		C-859.8,140.9-864.6,138.9-869.1,137.1z"/>
	<path class="st3" d="M-895.3,164.2c2,4.7,4,9.4,6.1,14.2c-5.1,2-10.1,3.8-15.6,4.5c-0.7-5.1-1.4-10.1-2.1-15.2
		C-903,166.6-899.2,165.4-895.3,164.2z"/>
	<path class="st3" d="M-883.4,157.1c2.8-3,5.5-5.8,8.3-8.8c4,3,8.1,6,12.6,9.4c-3.9,4-7.6,7.8-11.5,11.8
		C-877.4,165.1-880.4,161-883.4,157.1z"/>
</g>
<g id="dollar">
	<path class="st3" d="M-1171.1,217.2c-54.1,0-98.2-44-98.2-98.2s44-98.2,98.2-98.2c54.1,0,98.2,44,98.2,98.2
		S-1117,217.2-1171.1,217.2z M-1171.1,26.9c-50.8,0-92.1,41.3-92.1,92.1s41.3,92.1,92.1,92.1s92.1-41.3,92.1-92.1
		S-1120.3,26.9-1171.1,26.9z"/>
	<path class="st3" d="M-1193.5,78.1c4.6-5.1,11.1-7.6,19.5-7.7v-8.3h5.9v8.2c8.3,0.6,14.6,3,19,7.3c4.4,4.3,6.7,10,6.9,17h-10.9
		c-0.3-3.2-1.1-5.9-2.6-8.2c-2.6-4.2-6.8-6.4-12.5-6.6v30.3c9.6,2.7,16.2,5.2,19.6,7.6c5.6,3.9,8.4,9.7,8.4,17.3
		c0,11.1-3.6,18.9-10.8,23.6c-4,2.6-9.7,4.3-17.3,5.1v12.1h-5.9v-12.1c-12.1-0.8-20.3-5.1-24.6-12.8c-2.4-4.2-3.6-9.9-3.6-17h11
		c0.3,5.7,1.2,9.8,2.7,12.5c2.6,4.7,7.4,7.3,14.4,7.9v-34c-9-1.7-15.7-4.5-20-8.5c-4.3-4-6.4-9.5-6.4-16.6
		C-1200.4,88.9-1198.1,83.2-1193.5,78.1z M-1185.1,104.1c2.7,2.3,6.4,3.9,11.1,4.9V79.7c-5.5,0.2-9.4,1.9-11.7,5
		c-2.3,3.1-3.5,6.4-3.5,9.8C-1189.2,98.6-1187.8,101.8-1185.1,104.1z M-1153.4,146.8c1.4-2.5,2.1-5.4,2.1-8.7
		c0-5.2-1.9-9.1-5.7-11.8c-2.2-1.6-5.9-3.1-11.1-4.5v32.8C-1161,154.2-1156.1,151.6-1153.4,146.8z"/>
</g>
<g id="broom">
	<path class="st3" d="M-1429.1,218c-54.6,0-99-44.4-99-99s44.4-99,99-99s99,44.4,99,99S-1374.5,218-1429.1,218z M-1429.1,26.1
		c-51.2,0-92.8,41.6-92.8,92.8s41.7,92.8,92.8,92.8c51.2,0,92.8-41.6,92.8-92.8S-1377.9,26.1-1429.1,26.1z"/>
	<path class="st3" d="M-1479.3,164.9c-0.8-2.1-0.1-3.9,1-5.7c7.9-12.7,15.7-25.5,23.5-38.3c0.4-0.6,0.6-1.5,0.6-2.2
		c0.1-1.6,0-3.2,0.1-4.8c0.2-3.4,2.5-5.7,6-5.8c2.8-0.1,5.7,0,8.5,0c0.3,0,0.7,0,1.1,0c0-0.6,0-1.2,0-1.8c0-16.5,0-33.1,0-49.6
		c0-2.3-0.1-4.7,0.9-6.8c0.7-0.7,1.4-1.4,2.1-2.1c2.7-1.4,5.4-1.4,8,0c0.7,0.7,1.4,1.4,2.1,2.1c1,2.2,0.9,4.5,0.9,6.8
		c0,16.5,0,33,0,49.5c0,0.6-0.1,1.2-0.2,2.1c1.9-0.1,3.5-0.1,5.1-0.1c1.6,0,3.2,0,4.8,0c3.5,0.1,5.8,2.4,6,5.8c0,0.1,0,0.2,0,0.3
		c-0.8,4.5,1.3,8.1,3.6,11.7c7.1,11.3,14,22.7,21,34c1,1.6,1.1,3.2,0.6,4.9c-0.5,0.5-1,1-1.5,1.5c-1.1,0.2-2.2,0.6-3.3,0.7
		c-11.4,1.7-22.9,2.7-34.5,3c-18.5,0.5-36.8-0.6-55-3.5C-1478.2,166-1478.8,165.4-1479.3,164.9z M-1433.6,162
		c0.7-3.1,1.4-6.1,2.1-9.1c0.1,0,0.2,0,0.3,0c0.7,3,1.4,6,2.1,9.1c5.1-0.2,10.3-0.3,15.5-0.5c0-5,0-9.9,0-14.7
		c0.4,0.4,0.7,0.8,0.9,1.2c1.9,3.9,3.8,7.8,5.6,11.7c0.4,0.9,0.9,1.2,1.9,1.1c2.6-0.3,5.2-0.6,7.9-0.9c1.1-0.1,2.2-0.3,3.4-0.4
		c-6.5-10.6-12.9-21-19.3-31.3c-0.3-0.5-1.1-0.9-1.6-0.9c-11-0.1-21.9,0-32.9-0.1c-0.8,0-1.3,0.3-1.8,1c-3.9,6.5-8,13-11.9,19.5
		c-2.4,3.9-4.8,7.8-7.3,11.9c4.7,0.5,9.2,1,13.7,1.5c2.3-4.9,4.6-9.6,6.9-14.4c0.2,0,0.4,0,0.6,0.1c-0.1,4.9-0.2,9.8-0.2,14.8
		C-1443.1,161.7-1438.4,161.8-1433.6,162z"/>
</g>
<g id="computer">
	<path class="st3" d="M-140.1,219.9c-55.7,0-101-45.3-101-101s45.3-101,101-101s101,45.3,101,101S-84.4,219.9-140.1,219.9z
		 M-140.1,24.3c-52.2,0-94.7,42.5-94.7,94.7s42.5,94.7,94.7,94.7s94.7-42.5,94.7-94.7S-87.9,24.3-140.1,24.3z"/>
	<path class="st3" d="M-104,89.7h-70.7c-4.7,0-8.5,3.8-8.5,8.5V144h3.6V98.3c0-2.7,2.2-4.9,4.9-4.9h70.7c2.7,0,4.9,2.2,4.9,4.9V144
		h3.6V98.3C-95.6,93.6-99.4,89.7-104,89.7z"/>
	<path class="st3" d="M-190.5,93.5c0-7.2,5.8-13,13-13h76.3c7.2,0,13,5.8,13,13v48.9h3.9V93.5c0-9.3-7.6-16.8-16.8-16.8h-76.3
		c-9.3,0-16.9,7.6-16.9,16.8v48.9h3.9V93.5z"/>
	<path class="st3" d="M-88.3,142.5h-3.8H-96h-86.8h-3.9h-3.9h-3.9h-10.1v1.9c0,9.3,7.6,16.8,16.9,16.8h10.1h76.3h10.1
		c9.3,0,16.8-7.6,16.8-16.8v-1.9h-10.1H-88.3z M-112.4,146.6c-0.8,1.8-2.5,3.1-4.6,3.1h-44.8c-2.1,0-3.9-1.3-4.6-3.1H-112.4z
		 M-91.2,157.4h-10.1h-76.3h-10.1c-6.5,0-11.9-4.8-12.9-11.1h29.9c0.8,4.1,4.4,7.2,8.7,7.2h44.8c4.3,0,7.9-3.1,8.7-7.2h29.9
		C-79.3,152.6-84.7,157.4-91.2,157.4z"/>
	<polygon class="st3" points="-175.4,91.6 -181,96.4 -181,144 -97,144 -97,100.1 -102,91.6 	"/>
</g>
<g id="bowtie">
	<path class="st3" d="M118.6-110.7c-55.9,0-101.3-45.5-101.3-101.3s45.5-101.3,101.3-101.3S219.9-267.9,219.9-212
		S174.4-110.7,118.6-110.7z M118.6-307.1c-52.4,0-95.1,42.6-95.1,95.1s42.6,95.1,95.1,95.1s95.1-42.6,95.1-95.1
		S171-307.1,118.6-307.1z"/>
	<path class="st3" d="M130.6-217.3c0-6.7-0.4-8.6-2.1-10.4c-1.8-1.9-5.1-1.7-10.5-1.6c-4,0-8,0.1-9.7,1.3c-2.3,1.7-1.7,7.2-1.6,11.6
		c0,7,0.2,10.5,6.2,11.6c1.9,0.3,5.7,0.6,5.7,0.6s7-0.5,8.5-1.1C130.1-206.4,130.6-208.7,130.6-217.3z"/>
	<path class="st3" d="M183.4-243.3c0,0-11.4-0.4-23.9,2.6c-12.9,3-22.8,8.8-27,11.5c1.9,2.7,2.3,5.9,2.3,12.1c0,8,0,13.8-6,16.1
		c-0.3,0.1-0.7,0.2-1.1,0.3c2.5,4.8,7.7,13.4,15.6,19.5c8.3,6.4,32,9.3,32,9.3s9.2-10.5,14.1-31.5
		C192.9-219.1,183.4-243.3,183.4-243.3z"/>
	<path class="st3" d="M102.1-216.1l0-2.3c-0.1-4.3-0.1-8.7,2-11.5c-4.9-2.9-16.7-9-30-10.9c-12.7-1.8-23.5-0.4-23.5-0.4
		s-5.4,19.5-3,40.3c2.7,22.3,15.3,29.6,15.3,29.6s24.9-4.4,32.6-11.5c5.6-5.1,9.9-12.5,12.8-18.4
		C102.2-203.8,102.2-209.8,102.1-216.1z"/>
</g>
<g id="pencil">
	<path class="st3" d="M-139.4-110.9c-55.7,0-101.1-45.3-101.1-101.1s45.3-101.1,101.1-101.1S-38.3-267.7-38.3-212
		S-83.7-110.9-139.4-110.9z M-139.4-306.8c-52.3,0-94.8,42.5-94.8,94.8s42.5,94.8,94.8,94.8s94.8-42.5,94.8-94.8
		S-87.1-306.8-139.4-306.8z"/>
	<polygon class="st3" points="-145.9,-171.7 -133.7,-175.7 -146.7,-184.5 	"/>
	
		<rect x="-146.4" y="-219.2" transform="matrix(0.5563 -0.831 0.831 0.5563 133.1413 -183.9006)" class="st3" width="81.5" height="5.1"/>
	
		<rect x="-152.7" y="-223.4" transform="matrix(0.557 -0.8305 0.8305 0.557 133.8292 -190.8156)" class="st3" width="81.5" height="5.1"/>
	
		<rect x="-159" y="-227.6" transform="matrix(0.5572 -0.8303 0.8303 0.5572 134.5328 -197.8261)" class="st3" width="81.5" height="5.1"/>
	<rect x="-204.7" y="-175.2" class="st3" width="51.7" height="6.9"/>
</g>
<g id="wardrobe">
	<path class="st3" d="M-397.3-110.9c-55.7,0-101.1-45.3-101.1-101.1s45.3-101.1,101.1-101.1s101.1,45.3,101.1,101.1
		S-341.6-110.9-397.3-110.9z M-397.3-306.8c-52.3,0-94.8,42.5-94.8,94.8s42.5,94.8,94.8,94.8s94.8-42.5,94.8-94.8
		S-345.1-306.8-397.3-306.8z"/>
	<polygon class="st3" points="-374.9,-175 -393.8,-204.8 -393.8,-144.3 -342.7,-164.8 -342.7,-188.2 	"/>
	<polygon class="st3" points="-397.3,-249.8 -448.6,-229.8 -397.3,-209.7 -346,-229.8 	"/>
	<polygon class="st3" points="-415.5,-174.7 -450.6,-189.1 -450.6,-164.8 -398.4,-144.3 -398.4,-204.8 	"/>
	<polygon class="st3" points="-455,-227.7 -471.8,-203.4 -455,-196.8 -419.5,-183 -402.6,-207.2 	"/>
	<polygon class="st3" points="-337.9,-225.7 -390.5,-206.7 -373,-181.5 -337.9,-195.2 -321.2,-201.7 	"/>
	<polygon class="st3" points="-381.1,-271.1 -393.4,-253.3 -338.8,-232 -326.5,-249.7 	"/>
	<polygon class="st3" points="-414.9,-271.1 -402.6,-253.3 -457.3,-232 -469.5,-249.7 	"/>
</g>
<g id="calendar">
	<path class="st3" d="M-709.6-238.2v63.9h92.7v-63.9H-709.6z M-621.8-179.3h-83.1v-54.3h83.1V-179.3z"/>
	<rect x="-680" y="-227.9" class="st3" width="13.7" height="11.1"/>
	<rect x="-660.2" y="-227.9" class="st3" width="13.7" height="11.1"/>
	<rect x="-640.4" y="-227.9" class="st3" width="13.7" height="11.1"/>
	<rect x="-699.9" y="-211.9" class="st3" width="13.7" height="11.1"/>
	<rect x="-680" y="-211.9" class="st3" width="13.7" height="11.1"/>
	<rect x="-660.2" y="-211.9" class="st3" width="13.7" height="11.1"/>
	<rect x="-640.4" y="-211.9" class="st3" width="13.7" height="11.1"/>
	<rect x="-699.9" y="-196" class="st3" width="13.7" height="11.1"/>
	<rect x="-680" y="-196" class="st3" width="13.7" height="11.1"/>
	<rect x="-660.2" y="-196" class="st3" width="13.7" height="11.1"/>
	<rect x="-640.4" y="-196" class="st3" width="13.7" height="11.1"/>
	<polygon class="st3" points="-634.6,-260.4 -634.6,-248 -644,-248 -644,-260.4 -682.6,-260.4 -682.6,-248 -692,-248 -692,-260.4 
		-709.6,-260.4 -709.6,-241.8 -617,-241.8 -617,-260.4 	"/>
	<rect x="-690.7" y="-265.5" class="st3" width="6.9" height="15.9"/>
	<rect x="-642.7" y="-265.5" class="st3" width="6.9" height="15.9"/>
	<polygon class="st3" points="-613.7,-223.8 -613.7,-171.3 -696.8,-171.3 -701.6,-171.3 -701.6,-166.4 -608.9,-166.4 -608.9,-230.2 
		-613.7,-230.2 -613.7,-225.6 	"/>
	<rect x="-613.7" y="-252.4" class="st3" width="4.8" height="18.5"/>
	<polygon class="st3" points="-605.7,-216 -605.7,-163.5 -688.8,-163.5 -693.6,-163.5 -693.6,-158.5 -600.9,-158.5 -600.9,-222.4 
		-605.7,-222.4 -605.7,-217.8 	"/>
	<rect x="-605.7" y="-244.6" class="st3" width="4.8" height="18.5"/>
	<path class="st3" d="M-655.3-110.9c-55.7,0-101.1-45.3-101.1-101.1s45.3-101.1,101.1-101.1s101.1,45.3,101.1,101.1
		S-599.5-110.9-655.3-110.9z M-655.3-306.8c-52.3,0-94.8,42.5-94.8,94.8s42.5,94.8,94.8,94.8s94.8-42.5,94.8-94.8
		S-603-306.8-655.3-306.8z"/>
</g>
<g id="receipt">
	<path class="st3" d="M-913.2-110.9c-55.7,0-101.1-45.3-101.1-101.1s45.3-101.1,101.1-101.1c55.7,0,101.1,45.3,101.1,101.1
		S-857.5-110.9-913.2-110.9z M-913.2-306.8c-52.3,0-94.8,42.5-94.8,94.8s42.5,94.8,94.8,94.8s94.8-42.5,94.8-94.8
		S-860.9-306.8-913.2-306.8z"/>
	<path class="st3" d="M-862.8-273l-12,12l-9.6-9.6l-9.6,9.6l-9.6-9.6l-9.6,9.6l-9.6-9.6l-9.6,9.6l-9.6-9.6l-9.6,9.6l-12-12V-151
		l12-12l9.6,9.6l9.6-9.6l9.6,9.6l9.6-9.6l9.6,9.6l9.6-9.6l9.6,9.6l9.6-9.6l12,12V-273z M-867-161l-7.9-7.9l-9.6,9.6l-9.6-9.6
		l-9.6,9.6l-9.6-9.6l-9.6,9.6l-9.6-9.6l-9.6,9.6l-9.6-9.6l-7.9,7.9V-263l7.9,7.9l9.6-9.6l9.6,9.6l9.6-9.6l9.6,9.6l9.6-9.6l9.6,9.6
		l9.6-9.6l9.6,9.6l7.9-7.9V-161z"/>
	<polygon class="st3" points="-948.8,-235.5 -948.8,-233.4 -890.3,-233.4 -890.3,-235.5 -890.3,-237.5 -948.8,-237.5 	"/>
	<polygon class="st3" points="-948.8,-224.4 -948.8,-222.3 -890.3,-222.3 -890.3,-224.4 -890.3,-226.5 -948.8,-226.5 	"/>
	<polygon class="st3" points="-948.8,-213.4 -948.8,-211.3 -890.3,-211.3 -890.3,-213.4 -890.3,-215.4 -948.8,-215.4 	"/>
	<polygon class="st3" points="-884.3,-233.4 -876.9,-233.4 -876.9,-235.5 -876.9,-237.5 -884.3,-237.5 	"/>
	<polygon class="st3" points="-884.3,-222.3 -876.9,-222.3 -876.9,-224.4 -876.9,-226.5 -884.3,-226.5 	"/>
	<polygon class="st3" points="-884.3,-211.3 -876.9,-211.3 -876.9,-213.4 -876.9,-215.4 -884.3,-215.4 	"/>
	<rect x="-901.3" y="-190" class="st3" width="4.1" height="8.5"/>
	<rect x="-894.7" y="-190" class="st3" width="4.1" height="8.5"/>
	<rect x="-888.1" y="-190" class="st3" width="4.1" height="8.5"/>
	<rect x="-881.5" y="-190" class="st3" width="4.1" height="8.5"/>
	<polygon class="st3" points="-948.8,-183.2 -948.8,-181.1 -915.2,-181.1 -915.2,-183.2 -915.2,-185.2 -948.8,-185.2 	"/>
</g>
<g id="question">
	<path class="st5" d="M-1156.5-249.1c-3.7-3.2-8.6-5-13.8-5c-5.1,0-10,1.7-13.6,4.8c-4.1,3.5-6.3,8.6-6.3,14.4
		c0,1.9,1.5,3.4,3.4,3.4c1.9,0,3.4-1.5,3.4-3.4c0-8.5,6.8-12.4,13.2-12.4c3.5,0,6.9,1.2,9.3,3.3c1.9,1.7,4.2,4.8,4.2,10.3
		c0,6.3-3.3,9.3-7.6,13.1c-5,4.5-10.7,9.6-10.7,20.7c0,1.9,1.5,3.4,3.4,3.4c1.9,0,3.4-1.5,3.4-3.4c0-8.1,3.9-11.6,8.5-15.7
		c4.6-4.1,9.8-8.8,9.8-18.1C-1150.1-240-1152.4-245.4-1156.5-249.1z"/>
	<circle class="st5" cx="-1172.3" cy="-165.7" r="7.3"/>
	<path class="st5" d="M-1132-251.1c-10.4-10.4-24.3-16.2-39.1-16.2c-14.8,0-28.6,5.8-39.1,16.2c-21.6,21.6-21.6,56.6,0,78.2
		c10.4,10.4,24.3,16.2,39.1,16.2c14.8,0,28.7-5.8,39.1-16.2C-1110.5-194.5-1110.5-229.5-1132-251.1z M-1172-164.2
		c-5.9,0-10.8-4.8-10.8-10.8c0-5.9,4.8-10.8,10.8-10.8c5.9,0,10.8,4.8,10.8,10.8C-1161.3-169-1166.1-164.2-1172-164.2z M-1156.7-212
		c-4.6,4.1-6.9,6.4-6.9,12c0,4.6-3.7,8.3-8.3,8.3c-4.6,0-8.3-3.7-8.3-8.3c0-13.3,7.2-19.7,12.4-24.4c4.2-3.8,5.9-5.5,5.9-9.4
		c0-2.9-0.8-5.1-2.5-6.6c-1.5-1.3-3.7-2.1-6.1-2.1c-0.8,0-8.3,0.2-8.3,7.5c0,4.6-3.7,8.3-8.3,8.3c-4.6,0-8.3-3.7-8.3-8.3
		c0-7.2,2.9-13.7,8.1-18.1c4.5-3.9,10.5-6,16.8-6c6.5,0,12.5,2.2,17.1,6.3c5.2,4.6,8,11.4,8,19
		C-1145.2-222.3-1151.9-216.3-1156.7-212z"/>
	<path class="st5" d="M-1156.5-249.1c-3.7-3.2-8.6-5-13.8-5c-5.1,0-10,1.7-13.6,4.8c-4.1,3.5-6.3,8.6-6.3,14.4
		c0,1.9,1.5,3.4,3.4,3.4c1.9,0,3.4-1.5,3.4-3.4c0-8.5,6.8-12.4,13.2-12.4c3.5,0,6.9,1.2,9.3,3.3c1.9,1.7,4.2,4.8,4.2,10.3
		c0,6.3-3.3,9.3-7.6,13.1c-5,4.5-10.7,9.6-10.7,20.7c0,1.9,1.5,3.4,3.4,3.4c1.9,0,3.4-1.5,3.4-3.4c0-8.1,3.9-11.6,8.5-15.7
		c4.6-4.1,9.8-8.8,9.8-18.1C-1150.1-240-1152.4-245.4-1156.5-249.1z"/>
	<circle class="st5" cx="-1172.3" cy="-165.7" r="7.3"/>
	<path class="st3" d="M-1124.1-259c-12.6-12.6-29.3-19.5-47-19.5c-17.8,0-34.5,6.9-47,19.5c-25.9,25.9-25.9,68.1,0,94
		c12.5,12.6,29.2,19.5,47,19.5c17.8,0,34.5-6.9,47-19.5C-1098.2-190.9-1098.2-233.1-1124.1-259z M-1126.3-167.2
		c-12,12-27.9,18.6-44.8,18.6c-16.9,0-32.8-6.6-44.8-18.6c-24.7-24.7-24.7-64.9,0-89.6c12-12,27.9-18.6,44.8-18.6
		c16.9,0,32.8,6.6,44.8,18.6C-1101.6-232.1-1101.6-191.9-1126.3-167.2z"/>
	<path class="st3" d="M-1156.5-249.1c-3.7-3.2-8.6-5-13.8-5c-5.1,0-10,1.7-13.6,4.8c-4.1,3.5-6.3,8.6-6.3,14.4
		c0,1.9,1.5,3.4,3.4,3.4c1.9,0,3.4-1.5,3.4-3.4c0-8.5,6.8-12.4,13.2-12.4c3.5,0,6.9,1.2,9.3,3.3c1.9,1.7,4.2,4.8,4.2,10.3
		c0,6.3-3.3,9.3-7.6,13.1c-5,4.5-10.7,9.6-10.7,20.7c0,1.9,1.5,3.4,3.4,3.4c1.9,0,3.4-1.5,3.4-3.4c0-8.1,3.9-11.6,8.5-15.7
		c4.6-4.1,9.8-8.8,9.8-18.1C-1150.1-240-1152.4-245.4-1156.5-249.1z"/>
	<circle class="st3" cx="-1172.3" cy="-174.9" r="7.3"/>
	<path class="st3" d="M-1170-276.5c-36,0-65.4,29.3-65.4,65.4c0,36,29.3,65.4,65.4,65.4c36,0,65.4-29.3,65.4-65.4
		C-1104.7-247.2-1134-276.5-1170-276.5z M-1172-164.2c-5.9,0-10.8-4.8-10.8-10.8c0-5.9,4.8-10.8,10.8-10.8c5.9,0,10.8,4.8,10.8,10.8
		C-1161.3-169-1166.1-164.2-1172-164.2z M-1156.7-212c-4.6,4.1-6.9,6.4-6.9,12c0,4.6-3.7,8.3-8.3,8.3c-4.6,0-8.3-3.7-8.3-8.3
		c0-13.3,7.2-19.7,12.4-24.4c4.2-3.8,5.9-5.5,5.9-9.4c0-2.9-0.8-5.1-2.5-6.6c-1.5-1.3-3.7-2.1-6.1-2.1c-0.8,0-8.3,0.2-8.3,7.5
		c0,4.6-3.7,8.3-8.3,8.3c-4.6,0-8.3-3.7-8.3-8.3c0-7.2,2.9-13.7,8.1-18.1c4.5-3.9,10.5-6,16.8-6c6.5,0,12.5,2.2,17.1,6.3
		c5.2,4.6,8,11.4,8,19C-1145.2-222.3-1151.9-216.3-1156.7-212z"/>
	<path class="st3" d="M-1171.1-110.9c-55.7,0-101.1-45.3-101.1-101.1s45.3-101.1,101.1-101.1c55.7,0,101.1,45.3,101.1,101.1
		S-1115.4-110.9-1171.1-110.9z M-1171.1-306.8c-52.3,0-94.8,42.5-94.8,94.8s42.5,94.8,94.8,94.8c52.3,0,94.8-42.5,94.8-94.8
		S-1118.9-306.8-1171.1-306.8z"/>
</g>
<g id="sendmail">
	<path class="st3" d="M-1429.1-110.9c-55.7,0-101.1-45.3-101.1-101.1s45.3-101.1,101.1-101.1S-1328-267.7-1328-212
		S-1373.3-110.9-1429.1-110.9z M-1429.1-306.8c-52.3,0-94.8,42.5-94.8,94.8s42.5,94.8,94.8,94.8c52.3,0,94.8-42.5,94.8-94.8
		S-1376.8-306.8-1429.1-306.8z"/>
	<path class="st3" d="M-1459.6-235.1c-0.7,1.5-1.1,3.2-0.9,4.9l3.2,42.7c0.1,1.5,0.6,2.9,1.3,4.1l28.3-28.3L-1459.6-235.1z"/>
	<path class="st3" d="M-1362.7-190.4c0.5-1.3,0.7-2.8,0.6-4.3l-3.2-42.7c-0.1-1.8-0.7-3.4-1.7-4.8l-28,28L-1362.7-190.4z"/>
	<path class="st3" d="M-1410.3-198.9l-12.5-9.2l-28.8,28.8c1.5,0.7,3.2,1.1,5,0.9l75.4-5.7c1.8-0.1,3.4-0.7,4.8-1.7l-32.8-24.1
		L-1410.3-198.9z"/>
	<path class="st4" d="M-1395-214.1l28-28c-1.1-1.7-2.8-3-4.7-3.8l-28.2,28.1L-1395-214.1z"/>
	<path class="st4" d="M-1423.4-215.9l-32.1-23.6c-1.8,1-3.2,2.6-4.1,4.4l31.9,23.4L-1423.4-215.9z"/>
	<polygon class="st4" points="-1410.9,-206.7 -1418.5,-212.3 -1422.8,-208.1 -1410.3,-198.9 -1399.3,-209.8 -1404.2,-213.4 	"/>
	<path class="st4" d="M-1362.7-190.4l-32.3-23.7l-4.3,4.3l32.8,24.1C-1364.8-186.9-1363.4-188.5-1362.7-190.4z"/>
	<path class="st3" d="M-1375.9-246.5l-75.4,5.7c-1.5,0.1-2.9,0.6-4.1,1.3l32.1,23.6l4.9,3.6l7.6,5.6l6.7-6.7l4.3-4.3l28.2-28.1
		C-1373-246.4-1374.4-246.6-1375.9-246.5z"/>
	<path class="st4" d="M-1427.7-211.7l-28.3,28.3c1,1.8,2.5,3.2,4.4,4.1l28.8-28.8L-1427.7-211.7z"/>
	<polygon class="st4" points="-1423.4,-215.9 -1427.7,-211.7 -1422.8,-208.1 -1418.5,-212.3 	"/>
	<polygon class="st4" points="-1404.2,-213.4 -1399.3,-209.8 -1395,-214.1 -1399.9,-217.7 	"/>
	
		<rect x="-1502.1" y="-221.6" transform="matrix(0.9918 -0.1276 0.1276 0.9918 15.7396 -191.1178)" class="st3" width="35.6" height="6.3"/>
	
		<rect x="-1504.9" y="-208.5" transform="matrix(0.9918 -0.1276 0.1276 0.9918 14.0494 -191.3626)" class="st3" width="35.6" height="6.3"/>
	
		<rect x="-1508" y="-193.7" transform="matrix(0.9918 -0.1276 0.1276 0.9918 12.1344 -191.7648)" class="st3" width="35.6" height="6.3"/>
</g>
</svg>
